# xmcd CD database file
#
# Track frame offsets:
#	150
#	14498
#	33637
#	51563
#	72409
#	91250
#	111222
#	130087
#	145819
#	164824
#	184617
#	198432
#
# Disc length: 2843 seconds
#
# Revision: 1
# Processed by: cddbd v1.5.2PL0 Copyright (c) Steve Scherf et al.
# Submitted via: CDex 1.51
#
DISCID=b30b190c
DTITLE=Fernando Del Papa - Eu Também
DYEAR=2016
DGENRE=Jazz
TTITLE0=Classe Média
TTITLE1=Eu Também
TTITLE2=Couro Cru
TTITLE3=Super Teimosia
TTITLE4=O Mar
TTITLE5=Si Muove
TTITLE6=Palafitas
TTITLE7=Olho Mágico
TTITLE8=Quebra Cabeça
TTITLE9=Meu Barraco
TTITLE10=Mundaréu
TTITLE11=Saída à Francesa
EXTD=YEAR: 2016
EXTT0=
EXTT1=
EXTT2=
EXTT3=
EXTT4=
EXTT5=
EXTT6=
EXTT7=
EXTT8=
EXTT9=
EXTT10=
EXTT11=
PLAYORDER=
